<?xml version="1.0" encoding="UTF-8"?>
<svg xmlns="http://www.w3.org/2000/svg" width="72" height="72" viewBox="0 0 72 72" fill="none">
  <path d="M71.3621 62.716C71.3621 67.4945 67.4875 71.3622 62.716 71.3622C57.9445 71.3622 54.0699 67.4875 54.0699 62.716C54.0699 57.9446 57.9445 54.0699 62.716 54.0699C67.4875 54.0699 71.3621 57.9446 71.3621 62.716ZM71.3411 8.6252V0H0V71.3272H8.6111C13.3826 71.3272 17.3063 67.4595 17.3063 62.681V25.8824C17.3063 21.1179 21.1179 17.3063 25.8894 17.3063H62.716C67.4805 17.3063 71.3411 13.3966 71.3411 8.6322V8.6252ZM71.3411 43.8403V36.7286C71.3411 31.9571 67.4735 28.1035 62.716 28.1035H28.0964V62.709C28.0964 67.4805 31.9641 71.3342 36.7215 71.3342H44.0364V52.6055C44.0364 47.0913 48.2614 43.8403 53.9788 43.8403H71.3481H71.3411Z" fill="#012AFF"></path>
</svg>
